<svg width="742" height="309" xmlns="http://www.w3.org/2000/svg" xmlns:xlink="http://www.w3.org/1999/xlink" xml:space="preserve" overflow="hidden"><defs><clipPath id="clip0"><rect x="1448" y="1353" width="742" height="309"/></clipPath></defs><g clip-path="url(#clip0)" transform="translate(-1448 -1353)"><path d="M1448 1486C1448 1442.92 1482.92 1408 1526 1408 1569.08 1408 1604 1442.92 1604 1486 1604 1529.08 1569.08 1564 1526 1564 1482.92 1564 1448 1529.08 1448 1486Z" fill="#FF7F57" fill-rule="evenodd"/><path d="M1509 1486.5C1509 1422.71 1557.58 1371 1617.5 1371 1677.42 1371 1726 1422.71 1726 1486.5 1726 1550.29 1677.42 1602 1617.5 1602 1557.58 1602 1509 1550.29 1509 1486.5Z" fill="#FFC629" fill-rule="evenodd"/><text fill="#FFFFFF" font-family="Consolas,Consolas_MSFontService,sans-serif" font-weight="700" font-size="147" transform="matrix(1 0 0 1 1616.41 1535)">CODIFY</text></g></svg>